<svg width="10" height="18" viewBox="0 0 10 18" fill="none" xmlns="http://www.w3.org/2000/svg">
<path d="M9.49894 0.00374516L7.16477 0C4.54241 0 2.84772 1.73869 2.84772 4.42978V6.4722H0.500815C0.298015 6.4722 0.133789 6.63661 0.133789 6.83942V9.79866C0.133789 10.0015 0.298202 10.1657 0.500815 10.1657H2.84772V17.6328C2.84772 17.8356 3.01195 17.9998 3.21475 17.9998H6.27679C6.47959 17.9998 6.64382 17.8354 6.64382 17.6328V10.1657H9.3879C9.5907 10.1657 9.75492 10.0015 9.75492 9.79866L9.75605 6.83942C9.75605 6.74204 9.71728 6.64879 9.64856 6.57988C9.57984 6.51096 9.48621 6.4722 9.38883 6.4722H6.64382V4.74081C6.64382 3.90864 6.84212 3.48618 7.92616 3.48618L9.49857 3.48562C9.70118 3.48562 9.8654 3.32121 9.8654 3.1186V0.370771C9.8654 0.168345 9.70137 0.00411968 9.49894 0.00374516Z" fill="white"/>
</svg>
