<svg width="50" height="50" viewBox="0 0 50 50" fill="none" xmlns="http://www.w3.org/2000/svg">
<circle cx="25" cy="25" r="25" fill="#3E4148"/>
<path d="M29.4989 16.0037L27.1648 16C24.5424 16 22.8477 17.7387 22.8477 20.4298V22.4722H20.5008C20.298 22.4722 20.1338 22.6366 20.1338 22.8394V25.7987C20.1338 26.0015 20.2982 26.1657 20.5008 26.1657H22.8477V33.6328C22.8477 33.8356 23.0119 33.9998 23.2147 33.9998H26.2768C26.4796 33.9998 26.6438 33.8354 26.6438 33.6328V26.1657H29.3879C29.5907 26.1657 29.7549 26.0015 29.7549 25.7987L29.756 22.8394C29.756 22.742 29.7173 22.6488 29.6486 22.5799C29.5798 22.511 29.4862 22.4722 29.3888 22.4722H26.6438V20.7408C26.6438 19.9086 26.8421 19.4862 27.9262 19.4862L29.4986 19.4856C29.7012 19.4856 29.8654 19.3212 29.8654 19.1186V16.3708C29.8654 16.1683 29.7014 16.0041 29.4989 16.0037Z" fill="white"/>
</svg>
