<svg width="50" height="50" viewBox="0 0 50 50" fill="none" xmlns="http://www.w3.org/2000/svg">
<circle cx="25" cy="25" r="25" fill="#E0C0C3"/>
<path d="M28.375 16H21.625C18.5189 16 16 18.5189 16 21.625V28.375C16 31.4811 18.5189 34 21.625 34H28.375C31.4811 34 34 31.4811 34 28.375V21.625C34 18.5189 31.4811 16 28.375 16ZM32.3125 28.375C32.3125 30.5463 30.5463 32.3125 28.375 32.3125H21.625C19.4538 32.3125 17.6875 30.5463 17.6875 28.375V21.625C17.6875 19.4538 19.4538 17.6875 21.625 17.6875H28.375C30.5463 17.6875 32.3125 19.4538 32.3125 21.625V28.375Z" fill="white"/>
<path d="M25 20.5C22.5149 20.5 20.5 22.5149 20.5 25C20.5 27.4851 22.5149 29.5 25 29.5C27.4851 29.5 29.5 27.4851 29.5 25C29.5 22.5149 27.4851 20.5 25 20.5ZM25 27.8125C23.4497 27.8125 22.1875 26.5503 22.1875 25C22.1875 23.4486 23.4497 22.1875 25 22.1875C26.5503 22.1875 27.8125 23.4486 27.8125 25C27.8125 26.5503 26.5503 27.8125 25 27.8125Z" fill="white"/>
<path d="M29.8379 20.7617C30.1691 20.7617 30.4375 20.4933 30.4375 20.1621C30.4375 19.831 30.1691 19.5625 29.8379 19.5625C29.5067 19.5625 29.2383 19.831 29.2383 20.1621C29.2383 20.4933 29.5067 20.7617 29.8379 20.7617Z" fill="white"/>
</svg>
