<svg width="16" height="18" viewBox="0 0 16 18" fill="none" xmlns="http://www.w3.org/2000/svg">
<path d="M13.2393 1.84453C12.0003 0.655094 10.2857 0 8.41123 0C5.54795 0 3.7869 1.1737 2.81378 2.15826C1.61448 3.37161 0.926758 4.9827 0.926758 6.57852C0.926758 8.58218 1.76484 10.1201 3.16833 10.6922C3.26255 10.7308 3.35735 10.7502 3.4503 10.7502C3.74638 10.7502 3.98098 10.5565 4.06226 10.2457C4.10963 10.0675 4.21941 9.62763 4.26714 9.43669C4.36931 9.05962 4.28676 8.87826 4.06394 8.61567C3.65802 8.13538 3.46899 7.56743 3.46899 6.82827C3.46899 4.63274 5.10383 2.29933 8.13384 2.29933C10.538 2.29933 12.0315 3.66578 12.0315 5.86537C12.0315 7.25341 11.7325 8.53887 11.1895 9.48511C10.8121 10.1426 10.1485 10.9263 9.12984 10.9263C8.68931 10.9263 8.29361 10.7454 8.04391 10.4299C7.80804 10.1317 7.7303 9.74642 7.82516 9.34491C7.93233 8.89126 8.07846 8.41806 8.21988 7.96058C8.47782 7.12505 8.72165 6.33591 8.72165 5.7063C8.72165 4.62938 8.05959 3.90578 7.07433 3.90578C5.8222 3.90578 4.84124 5.17753 4.84124 6.80104C4.84124 7.59727 5.05285 8.1928 5.14864 8.42148C4.99091 9.08981 4.05343 13.0632 3.87561 13.8124C3.7728 14.2498 3.15341 17.7044 4.1786 17.9799C5.33047 18.2893 6.36008 14.9248 6.46487 14.5446C6.54981 14.2354 6.84699 13.0662 7.02911 12.3475C7.58516 12.8831 8.48049 13.2452 9.35166 13.2452C10.994 13.2452 12.471 12.5062 13.5106 11.1644C14.5188 9.86287 15.0741 8.04888 15.0741 6.05678C15.0741 4.49939 14.4053 2.96406 13.2393 1.84453Z" fill="#E0C0C3"/>
</svg>
