<svg width="18" height="18" viewBox="0 0 18 18" fill="none" xmlns="http://www.w3.org/2000/svg">
<path d="M7.3702 13.6115L14.7923 9.32596C14.9087 9.25898 14.9804 9.13442 14.9804 9.00027C14.9804 8.86611 14.9087 8.74156 14.7923 8.67439L7.3702 4.38827C7.25373 4.3211 7.11036 4.3211 6.99389 4.38827C6.87743 4.45544 6.80574 4.57981 6.80574 4.71415V6.70951H0.398766C0.191046 6.70951 0.0224609 6.87809 0.0224609 7.08581V10.9136C0.0224609 11.1213 0.191046 11.2899 0.398766 11.2899H6.80593V13.2851C6.80593 13.4198 6.87761 13.5438 6.99408 13.6109C7.05241 13.6448 7.11732 13.6614 7.18223 13.6614C7.24715 13.6614 7.31206 13.6448 7.3702 13.6115Z" fill="#8A8E99"/>
<path d="M15.1976 0H7.5306C7.32288 0 7.1543 0.168585 7.1543 0.376305V1.50522C7.1543 1.71294 7.32288 1.88153 7.5306 1.88153H15.1976C15.6929 1.88153 16.0953 2.28436 16.0953 2.7792V15.2208C16.0953 15.7158 15.6925 16.1185 15.1976 16.1185H7.5306C7.32288 16.1185 7.1543 16.2871 7.1543 16.4948V17.6237C7.1543 17.8314 7.32288 18 7.5306 18H15.1976C16.7303 18 17.9768 16.7531 17.9768 15.2208V2.77939C17.9768 1.24689 16.7301 0 15.1976 0Z" fill="#8A8E99"/>
</svg>
