<svg width="50" height="50" viewBox="0 0 50 50" fill="none" xmlns="http://www.w3.org/2000/svg">
<circle cx="25" cy="25" r="25" fill="#3E4148"/>
<path d="M30.2393 17.8445C29.0003 16.6551 27.2857 16 25.4112 16C22.5479 16 20.7869 17.1737 19.8138 18.1583C18.6145 19.3716 17.9268 20.9827 17.9268 22.5785C17.9268 24.5822 18.7648 26.1201 20.1683 26.6922C20.2625 26.7308 20.3574 26.7502 20.4503 26.7502C20.7464 26.7502 20.981 26.5565 21.0623 26.2457C21.1096 26.0675 21.2194 25.6276 21.2671 25.4367C21.3693 25.0596 21.2868 24.8783 21.0639 24.6157C20.658 24.1354 20.469 23.5674 20.469 22.8283C20.469 20.6327 22.1038 18.2993 25.1338 18.2993C27.538 18.2993 29.0315 19.6658 29.0315 21.8654C29.0315 23.2534 28.7325 24.5389 28.1895 25.4851C27.8121 26.1426 27.1485 26.9263 26.1298 26.9263C25.6893 26.9263 25.2936 26.7454 25.0439 26.4299C24.808 26.1317 24.7303 25.7464 24.8252 25.3449C24.9323 24.8913 25.0785 24.4181 25.2199 23.9606C25.4778 23.1251 25.7216 22.3359 25.7216 21.7063C25.7216 20.6294 25.0596 19.9058 24.0743 19.9058C22.8222 19.9058 21.8412 21.1775 21.8412 22.801C21.8412 23.5973 22.0529 24.1928 22.1486 24.4215C21.9909 25.0898 21.0534 29.0632 20.8756 29.8124C20.7728 30.2498 20.1534 33.7044 21.1786 33.9799C22.3305 34.2893 23.3601 30.9248 23.4649 30.5446C23.5498 30.2354 23.847 29.0662 24.0291 28.3475C24.5852 28.8831 25.4805 29.2452 26.3517 29.2452C27.994 29.2452 29.471 28.5062 30.5106 27.1644C31.5188 25.8629 32.0741 24.0489 32.0741 22.0568C32.0741 20.4994 31.4053 18.9641 30.2393 17.8445Z" fill="white"/>
</svg>
