<svg width="50" height="50" viewBox="0 0 50 50" fill="none" xmlns="http://www.w3.org/2000/svg">
<g clip-path="url(#clip0)">
<path d="M17.6469 17.0358C17.6469 15.3295 19.0302 13.9462 20.7365 13.9462C22.4428 13.9462 23.8258 15.3295 23.8258 17.0358V19.6234L24.4229 19.0843C24.4519 19.0578 24.4756 19.0261 24.4928 18.991H24.5577V17.0358C24.5577 14.9254 22.8469 13.2144 20.7365 13.2144C18.6258 13.2144 16.915 14.9254 16.915 17.0358V18.9912H17.6469V17.0358Z" fill="#8A8E99"/>
<path d="M30.9956 27.7802C30.8361 27.9043 30.8076 28.1343 30.9317 28.2938L31.2088 28.6497C31.366 28.4359 31.4967 28.2035 31.5976 27.958L31.5092 27.8443C31.385 27.6848 31.1551 27.6562 30.9956 27.7802Z" fill="#8A8E99"/>
<path d="M21.1023 21.4312C21.0039 21.4312 20.9177 21.4973 20.8922 21.5923C20.8667 21.6874 20.9083 21.7877 20.9937 21.8369C21.0789 21.8861 21.1867 21.872 21.2561 21.8024C21.3184 21.7401 21.337 21.6466 21.3035 21.5653C21.2698 21.484 21.1904 21.4312 21.1023 21.4312Z" fill="#8A8E99"/>
<path d="M23.0582 23.6337C23.1507 23.0279 23.673 22.5811 24.2858 22.5835H26.9462L26.5251 19.5628C26.4732 19.2328 26.1882 18.99 25.8541 18.9912H24.558V20.9062C24.558 21.1084 24.3943 21.2722 24.1921 21.2722C23.9901 21.2722 23.8262 21.1084 23.8262 20.9062V19.6238L22.8962 20.4637L22.906 22.4106C22.9064 22.4943 22.8734 22.5748 22.8141 22.634L19.9955 25.4526C19.6658 25.7826 19.1308 25.7826 18.801 25.4526L17.2987 23.9503C16.9687 23.6205 16.9687 23.0855 17.2987 22.7555L20.1175 19.9369C20.1773 19.8789 20.2571 19.846 20.3407 19.8452L22.5828 19.8564C22.5981 19.8566 22.6134 19.8578 22.6285 19.8603L23.5903 18.9914H17.647V20.9062C17.647 21.1084 17.4833 21.2722 17.2811 21.2722C17.0789 21.2722 16.9152 21.1084 16.9152 20.9062V18.9914H15.6191C15.285 18.99 15 19.2328 14.9483 19.5628L13 33.5404C13.0143 34.4832 13.7821 35.2402 14.7251 35.2412H21.4399L23.0569 23.6399L23.0582 23.6337Z" fill="#8A8E99"/>
<path d="M20.4685 20.4731L17.7424 23.1992C17.6575 23.284 17.6575 23.4218 17.7424 23.5068L19.2445 25.0091C19.3295 25.0938 19.4673 25.0938 19.5523 25.0091L22.2782 22.283L22.2692 20.4821L20.4685 20.4731ZM21.7001 22.2462C21.3701 22.5762 20.8353 22.5762 20.5053 22.2462C20.1753 21.9162 20.1753 21.3814 20.5053 21.0514C20.8353 20.7215 21.3701 20.7215 21.7001 21.0514C21.8598 21.2091 21.9498 21.4243 21.9498 21.6489C21.9498 21.8734 21.8598 22.0886 21.7001 22.2462Z" fill="#8A8E99"/>
<path d="M34.5572 35.2598L31.961 32.254C31.897 32.18 31.8654 32.0837 31.8731 31.9863L32.0473 29.759C32.0479 29.7496 32.0496 29.7406 32.0508 29.7317L31.2093 28.6506C30.3753 29.7895 28.9036 30.2628 27.5622 29.824C26.2206 29.3849 25.3136 28.1332 25.3142 26.7215V25.0436C25.3142 24.8416 25.4779 24.6777 25.6801 24.6777C25.8823 24.6777 26.046 24.8416 26.046 25.0436V26.7213C26.046 28.1199 27.1798 29.2536 28.5781 29.2536C29.9767 29.2536 31.1105 28.1199 31.1105 26.7213V25.0436C31.1105 24.8416 31.2742 24.6777 31.4764 24.6777C31.6785 24.6777 31.8423 24.8416 31.8423 25.0436V26.7213C31.8427 27.1456 31.7596 27.5661 31.5981 27.9586L32.7545 29.4437L34.1825 29.5409L33.3746 23.7445C33.3354 23.4968 33.1214 23.3144 32.8705 23.3154H24.286C24.0351 23.3144 23.8211 23.4968 23.7818 23.7445L22.1484 35.4624C22.1623 36.2192 22.7794 36.8256 23.5364 36.8262H33.6203C34.3473 36.8254 34.9507 36.2645 35.0044 35.5396C34.8304 35.4938 34.6744 35.3962 34.5572 35.2598Z" fill="#8A8E99"/>
<path d="M33.7734 31.2012C33.6966 31.2012 33.6304 31.2547 33.6141 31.3298C33.5978 31.4048 33.636 31.4809 33.7058 31.5128C33.7756 31.5446 33.8583 31.5236 33.9043 31.4623C33.9504 31.4009 33.9474 31.3157 33.8971 31.2575C33.8661 31.2216 33.821 31.201 33.7734 31.2012Z" fill="#8A8E99"/>
<path d="M36.9601 33.184L34.4637 30.2936L32.7484 30.1768L32.6143 31.8908L35.1106 34.7815C35.1696 34.8497 35.2728 34.8573 35.341 34.7983L36.9433 33.4146C37.0115 33.3556 37.0191 33.2524 36.9601 33.184ZM34.6667 31.4293C34.6326 31.8968 34.2438 32.2586 33.7753 32.2592C33.7531 32.2592 33.7308 32.2586 33.7086 32.257C33.2154 32.2208 32.845 31.7918 32.8811 31.2988C32.9173 30.8057 33.3461 30.4353 33.8393 30.4714C34.3322 30.5074 34.7028 30.9364 34.6667 31.4293Z" fill="#8A8E99"/>
</g>
<circle cx="36" cy="14" r="3" fill="#8A8E99"/>
<defs>
<clipPath id="clip0">
<rect width="24" height="24" fill="white" transform="translate(13 13)"/>
</clipPath>
</defs>
</svg>
