<svg width="24" height="24" viewBox="0 0 24 24" fill="none" xmlns="http://www.w3.org/2000/svg">
<g clip-path="url(#clip0)">
<path d="M4.6469 4.03578C4.6469 2.32948 6.03016 0.946214 7.73647 0.946214C9.44278 0.946214 10.8258 2.32948 10.8258 4.03578V6.62343L11.4229 6.08433C11.4519 6.05779 11.4756 6.02614 11.4928 5.99101H11.5577V4.03578C11.5577 1.92536 9.8469 0.214355 7.73647 0.214355C5.62584 0.214355 3.91504 1.92536 3.91504 4.03578V5.99122H4.6469V4.03578Z" fill="#8A8E99"/>
<path d="M17.9956 14.7802C17.8361 14.9043 17.8076 15.1343 17.9317 15.2938L18.2088 15.6497C18.366 15.4359 18.4967 15.2035 18.5976 14.958L18.5092 14.8443C18.385 14.6848 18.1551 14.6562 17.9956 14.7802Z" fill="#8A8E99"/>
<path d="M8.10234 8.43115C8.00391 8.43115 7.91773 8.49731 7.89221 8.59227C7.86668 8.68743 7.90834 8.78769 7.9937 8.8369C8.07885 8.88611 8.18668 8.87202 8.25611 8.80239C8.31839 8.74011 8.33697 8.64659 8.30348 8.56531C8.26979 8.48404 8.19035 8.43115 8.10234 8.43115Z" fill="#8A8E99"/>
<path d="M10.0582 10.6337C10.1507 10.0279 10.673 9.58109 11.2858 9.58354H13.9462L13.5251 6.56278C13.4732 6.23279 13.1882 5.98999 12.8541 5.99122H11.558V7.90622C11.558 8.10838 11.3943 8.27215 11.1921 8.27215C10.9901 8.27215 10.8262 8.10838 10.8262 7.90622V6.62383L9.89624 7.46372L9.90604 9.41058C9.90645 9.4943 9.87337 9.57476 9.81415 9.63397L6.99555 12.4526C6.66576 12.7826 6.13075 12.7826 5.80097 12.4526L4.29865 10.9503C3.96866 10.6205 3.96866 10.0855 4.29865 9.75547L7.11746 6.93687C7.17729 6.87888 7.25713 6.846 7.34065 6.84519L9.58279 6.85642C9.5981 6.85662 9.61342 6.85785 9.62853 6.8603L10.5903 5.99142H4.64702V7.90622C4.64702 8.10838 4.48325 8.27215 4.28109 8.27215C4.07893 8.27215 3.91516 8.10838 3.91516 7.90622V5.99142H2.61909C2.28502 5.98999 1.99995 6.23279 1.94829 6.56278L0 20.5404C0.0142942 21.4832 0.782093 22.2402 1.7251 22.2412H8.43987L10.0569 10.6399L10.0582 10.6337Z" fill="#8A8E99"/>
<path d="M7.46852 7.47314L4.74242 10.1992C4.65747 10.284 4.65747 10.4218 4.74242 10.5068L6.24453 12.0091C6.32948 12.0938 6.46732 12.0938 6.55227 12.0091L9.27816 9.28299L9.26918 7.48213L7.46852 7.47314ZM8.70007 9.24623C8.37008 9.57622 7.83527 9.57622 7.50528 9.24623C7.17529 8.91624 7.17529 8.38143 7.50528 8.05144C7.83527 7.72145 8.37008 7.72145 8.70007 8.05144C8.85975 8.20909 8.94981 8.42432 8.94981 8.64894C8.94981 8.87336 8.85975 9.08859 8.70007 9.24623Z" fill="#8A8E99"/>
<path d="M21.5572 22.2598L18.961 19.254C18.897 19.18 18.8654 19.0837 18.8731 18.9863L19.0473 16.759C19.0479 16.7496 19.0496 16.7406 19.0508 16.7317L18.2093 15.6506C17.3753 16.7895 15.9036 17.2628 14.5622 16.824C13.2206 16.3849 12.3136 15.1332 12.3142 13.7215V12.0436C12.3142 11.8416 12.4779 11.6777 12.6801 11.6777C12.8823 11.6777 13.046 11.8416 13.046 12.0436V13.7213C13.046 15.1199 14.1798 16.2536 15.5781 16.2536C16.9767 16.2536 18.1105 15.1199 18.1105 13.7213V12.0436C18.1105 11.8416 18.2742 11.6777 18.4764 11.6777C18.6785 11.6777 18.8423 11.8416 18.8423 12.0436V13.7213C18.8427 14.1456 18.7596 14.5661 18.5981 14.9586L19.7545 16.4437L21.1825 16.5409L20.3746 10.7445C20.3354 10.4968 20.1214 10.3144 19.8705 10.3154H11.286C11.0351 10.3144 10.8211 10.4968 10.7818 10.7445L9.14844 22.4624C9.16232 23.2192 9.77942 23.8256 10.5364 23.8262H20.6203C21.3473 23.8254 21.9507 23.2645 22.0044 22.5396C21.8304 22.4938 21.6744 22.3962 21.5572 22.2598Z" fill="#8A8E99"/>
<path d="M20.7734 18.2012C20.6966 18.2012 20.6304 18.2547 20.6141 18.3298C20.5978 18.4048 20.636 18.4809 20.7058 18.5128C20.7756 18.5446 20.8583 18.5236 20.9043 18.4623C20.9504 18.4009 20.9474 18.3157 20.8971 18.2575C20.8661 18.2216 20.821 18.201 20.7734 18.2012Z" fill="#8A8E99"/>
<path d="M23.9601 20.184L21.4637 17.2936L19.7484 17.1768L19.6143 18.8908L22.1106 21.7815C22.1696 21.8497 22.2728 21.8573 22.341 21.7983L23.9433 20.4146C24.0115 20.3556 24.0191 20.2524 23.9601 20.184ZM21.6667 18.4293C21.6326 18.8968 21.2438 19.2586 20.7753 19.2592C20.7531 19.2592 20.7308 19.2586 20.7086 19.257C20.2154 19.2208 19.845 18.7918 19.8811 18.2988C19.9173 17.8057 20.3461 17.4353 20.8393 17.4714C21.3322 17.5074 21.7028 17.9364 21.6667 18.4293Z" fill="#8A8E99"/>
</g>
<defs>
<clipPath id="clip0">
<rect width="24" height="24" fill="white"/>
</clipPath>
</defs>
</svg>
