<svg width="18" height="12" viewBox="0 0 18 12" fill="none" xmlns="http://www.w3.org/2000/svg">
<path d="M17.8396 10.0253C17.7912 9.94427 17.4919 9.29397 16.0518 7.95737C14.5442 6.55776 14.7467 6.78503 16.5626 4.36498C17.6686 2.89112 18.1107 1.99105 17.9724 1.60627C17.8407 1.23949 17.0273 1.33625 17.0273 1.33625L14.3226 1.352C14.3226 1.352 14.1223 1.325 13.9727 1.41388C13.8275 1.50164 13.7342 1.70415 13.7342 1.70415C13.7342 1.70415 13.3055 2.84499 12.734 3.81481C11.529 5.86134 11.0463 5.96935 10.8494 5.84221C10.3915 5.54631 10.5063 4.65187 10.5063 4.01733C10.5063 2.0338 10.8067 1.20687 9.92013 0.993101C9.62535 0.922221 9.40934 0.874967 8.65665 0.867092C7.69133 0.856966 6.8734 0.870467 6.41099 1.09661C6.10271 1.24737 5.86532 1.58377 6.01046 1.6029C6.18934 1.62652 6.59437 1.71203 6.80927 2.00455C7.08716 2.38145 7.07704 3.22977 7.07704 3.22977C7.07704 3.22977 7.2368 5.56432 6.70463 5.85459C6.33898 6.05373 5.83832 5.64757 4.76386 3.79006C4.21369 2.83936 3.79741 1.78741 3.79741 1.78741C3.79741 1.78741 3.71753 1.59165 3.57465 1.48701C3.40138 1.35988 3.15836 1.31938 3.15836 1.31938L0.586421 1.33513C0.586421 1.33513 0.200516 1.34638 0.0587556 1.51401C-0.0672539 1.66365 0.0486298 1.97192 0.0486298 1.97192C0.0486298 1.97192 2.06253 6.68265 4.34195 9.0577C6.43349 11.2347 8.80742 11.0919 8.80742 11.0919H9.883C9.883 11.0919 10.2081 11.0558 10.3735 10.877C10.5265 10.7127 10.5209 10.4044 10.5209 10.4044C10.5209 10.4044 10.4995 8.96094 11.1701 8.7483C11.8305 8.53904 12.6788 10.1434 13.5778 10.7611C14.2573 11.228 14.7737 11.1256 14.7737 11.1256L17.178 11.0919C17.178 11.0919 18.4359 11.0142 17.8396 10.0253Z" fill="#E0C0C3"/>
</svg>
