<svg width="50" height="50" viewBox="0 0 50 50" fill="none" xmlns="http://www.w3.org/2000/svg">
<circle cx="25" cy="25" r="25" fill="#3E4148"/>
<g clip-path="url(#clip0)">
<path d="M33.8396 29.0258C33.7912 28.9448 33.4919 28.2945 32.0518 26.9579C30.5442 25.5583 30.7467 25.7855 32.5626 23.3655C33.6686 21.8916 34.1107 20.9915 33.9724 20.6068C33.8407 20.24 33.0273 20.3367 33.0273 20.3367L30.3226 20.3525C30.3226 20.3525 30.1223 20.3255 29.9727 20.4144C29.8275 20.5021 29.7342 20.7046 29.7342 20.7046C29.7342 20.7046 29.3055 21.8455 28.734 22.8153C27.529 24.8618 27.0463 24.9698 26.8494 24.8427C26.3915 24.5468 26.5063 23.6524 26.5063 23.0178C26.5063 21.0343 26.8067 20.2074 25.9201 19.9936C25.6254 19.9227 25.4093 19.8755 24.6567 19.8676C23.6913 19.8575 22.8734 19.871 22.411 20.0971C22.1027 20.2479 21.8653 20.5843 22.0105 20.6034C22.1893 20.627 22.5944 20.7125 22.8093 21.005C23.0872 21.3819 23.077 22.2303 23.077 22.2303C23.077 22.2303 23.2368 24.5648 22.7046 24.8551C22.339 25.0542 21.8383 24.6481 20.7639 22.7905C20.2137 21.8399 19.7974 20.7879 19.7974 20.7879C19.7974 20.7879 19.7175 20.5921 19.5746 20.4875C19.4014 20.3604 19.1584 20.3199 19.1584 20.3199L16.5864 20.3356C16.5864 20.3356 16.2005 20.3469 16.0588 20.5145C15.9327 20.6641 16.0486 20.9724 16.0486 20.9724C16.0486 20.9724 18.0625 25.6831 20.342 28.0582C22.4335 30.2352 24.8074 30.0923 24.8074 30.0923H25.883C25.883 30.0923 26.2081 30.0563 26.3735 29.8774C26.5265 29.7132 26.5209 29.4049 26.5209 29.4049C26.5209 29.4049 26.4995 27.9614 27.1701 27.7488C27.8305 27.5395 28.6788 29.1439 29.5778 29.7616C30.2573 30.2285 30.7737 30.1261 30.7737 30.1261L33.178 30.0923C33.178 30.0923 34.4359 30.0147 33.8396 29.0258Z" fill="white"/>
</g>
<defs>
<clipPath id="clip0">
<rect width="18" height="18" fill="white" transform="translate(16 16)"/>
</clipPath>
</defs>
</svg>
