<svg width="18" height="12" viewBox="0 0 18 12" fill="none" xmlns="http://www.w3.org/2000/svg">
<path d="M17.8396 10.0258C17.7912 9.94475 17.4919 9.29446 16.0518 7.95786C14.5442 6.55825 14.7467 6.78552 16.5626 4.36546C17.6686 2.89161 18.1107 1.99154 17.9724 1.60676C17.8407 1.23998 17.0273 1.33674 17.0273 1.33674L14.3226 1.35249C14.3226 1.35249 14.1223 1.32549 13.9727 1.41437C13.8275 1.50213 13.7342 1.70464 13.7342 1.70464C13.7342 1.70464 13.3055 2.84548 12.734 3.8153C11.529 5.86183 11.0463 5.96983 10.8494 5.8427C10.3915 5.5468 10.5063 4.65236 10.5063 4.01781C10.5063 2.03429 10.8067 1.20736 9.92013 0.993589C9.62535 0.922709 9.40934 0.875455 8.65665 0.86758C7.69133 0.857454 6.8734 0.870955 6.41099 1.0971C6.10271 1.24786 5.86532 1.58426 6.01046 1.60338C6.18934 1.62701 6.59437 1.71252 6.80927 2.00504C7.08716 2.38194 7.07704 3.23026 7.07704 3.23026C7.07704 3.23026 7.2368 5.5648 6.70463 5.85508C6.33898 6.05422 5.83832 5.64806 4.76386 3.79055C4.21369 2.83985 3.79741 1.7879 3.79741 1.7879C3.79741 1.7879 3.71753 1.59213 3.57465 1.4875C3.40138 1.36037 3.15836 1.31986 3.15836 1.31986L0.586421 1.33561C0.586421 1.33561 0.200516 1.34687 0.0587556 1.5145C-0.0672539 1.66414 0.0486298 1.97241 0.0486298 1.97241C0.0486298 1.97241 2.06253 6.68314 4.34195 9.05819C6.43349 11.2352 8.80742 11.0923 8.80742 11.0923H9.883C9.883 11.0923 10.2081 11.0563 10.3735 10.8774C10.5265 10.7132 10.5209 10.4049 10.5209 10.4049C10.5209 10.4049 10.4995 8.96143 11.1701 8.74879C11.8305 8.53953 12.6788 10.1439 13.5778 10.7616C14.2573 11.2285 14.7737 11.1261 14.7737 11.1261L17.178 11.0923C17.178 11.0923 18.4359 11.0147 17.8396 10.0258Z" fill="white"/>
</svg>
